[CENTER]
[quote="Quality Releaser ~ deep1007"][COLOR="Brown"][SIZE="4"][b]Problem-* Screenshots Wont Be Clear As It Is When It's Downloaded![/b][/SIZE][/COLOR]
[COLOR="Purple"][SIZE="4"][b]Reason-* Screenshots Have Been Taken From Windows Server![/b][/SIZE][/COLOR]
[COLOR="Green"][SIZE="4"][b]Solution-* Please Check The Sample Link Provided Below![/b][/SIZE][/COLOR][/quote]

[IMG]http://imageshack.us/a/img13/2981/deep1007ripperbanner.png[/IMG][/CENTER]

[CENTER][IMG]http://img20.imageshack.us/img20/1492/u3vr.jpg[/IMG][/CENTER]

[CENTER][IMG]http://imageshack.us/a/img809/3244/deep1007mediainfo.png[/IMG][/CENTER]
[CENTER][CODE]
General
Complete name                            : Himmatwala [2013].avi
Format                                   : AVI
Format/Info                              : Audio Video Interleave
File size                                : 703 MiB
Duration                                 : 2h 26mn
Overall bit rate mode                    : Variable
Overall bit rate                         : 671 Kbps
Writing application                      : MEncoder r33883
Writing library                          : MPlayer

Video
ID                                       : 0
Format                                   : MPEG-4 Visual
Format profile                           : Simple@L3
Format settings, BVOP                    : No
Format settings, QPel                    : No
Format settings, GMC                     : No warppoints
Format settings, Matrix                  : Default (H.263)
Codec ID                                 : XVID
Codec ID/Hint                            : XviD
Duration                                 : 2h 26mn
Bit rate                                 : 591 Kbps
Width                                    : 640 pixels
Height                                   : 272 pixels
Display aspect ratio                     : 2.35:1
Frame rate                               : 29.970 fps
Color space                              : YUV
Chroma subsampling                       : 4:2:0
Bit depth                                : 8 bits
Scan type                                : Progressive
Compression mode                         : Lossy
Bits/(Pixel*Frame)                       : 0.113
Stream size                              : 619 MiB (88%)
Writing library                          : XviD 63

Audio
ID                                       : 1
Format                                   : MPEG Audio
Format version                           : Version 1
Format profile                           : Layer 3
Mode                                     : Joint stereo
Codec ID                                 : 55
Codec ID/Hint                            : MP3
Duration                                 : 2h 26mn
Bit rate mode                            : Variable
Bit rate                                 : 67.3 Kbps
Channel(s)                               : 2 channels
Sampling rate                            : 44.1 KHz
Compression mode                         : Lossy
Stream size                              : 70.5 MiB (10%)
Alignment                                : Aligned on interleaves
Interleave, duration                     : 26 ms (0.78 video frame)
Interleave, preload duration             : 504 ms
[/CODE][/CENTER]

[CENTER][IMG]http://imageshack.us/a/img844/7039/deep1007screenshots.png[/IMG][/CENTER]
[CENTER]
[IMG]http://i.imgbox.com/accsEYjw.png[/IMG]
[IMG]http://i.imgbox.com/adcDzdGp.png[/IMG]
[IMG]http://i.imgbox.com/acziPTXq.png[/IMG]
[IMG]http://i.imgbox.com/abxO7wSp.png[/IMG]
[IMG]http://i.imgbox.com/acogRt3m.png[/IMG]
[IMG]http://i.imgbox.com/acqW2f3L.png[/IMG]
[IMG]http://i.imgbox.com/abuEbF0Z.png[/IMG]
[IMG]http://i.imgbox.com/adwMbVnR.png[/IMG]
[IMG]http://i.imgbox.com/aduxgU57.png[/IMG]
[IMG]http://i.imgbox.com/adl7X9yw.png[/IMG]
[/CENTER]
SAMPLE =-[/b][/SIZE][/COLOR][/URL][/CENTER]

[CENTER][COLOR="Purple"][SIZE="3"][b]Don't Forget To Say "Thanks"! And "Comment"! If You Like My Post![/b][/SIZE][/COLOR]
[COLOR="Green"][SIZE="3"][b]If You Don't Reply, This Post Will "Die"![/b][/SIZE][/COLOR]
[COLOR="Brown"][SIZE="3"][b]Check Sample Before "Commenting"![/b][/SIZE][/COLOR][/CENTER]
[CENTER][IMG]http://img189.imageshack.us/img189/2664/xo7.png[/IMG][/CENTER]
[CENTER][COLOR="Red"][SIZE="3"][b]~ FAST SEEDING ~[/b][/SIZE][/COLOR][/CENTER]

[quote="deep1007"]Please Seed After downloading...and maintain your Ratio!
If Any Mistake, Forgive Me...All Suggestions, Instructions, Orders By Admin ETC, Heartly Accepted...
If You Want Any Other, Please PM Me...[/quote]